<mxfile host="app.diagrams.net" agent="Mozilla/5.0 (Windows NT 10.0; Win64; x64) AppleWebKit/537.36 (KHTML, like Gecko) Chrome/137.0.0.0 Safari/537.36" version="26.2.14">
  <diagram name="Page-1" id="fZmdWjNPi87PmOQu8XhW">
    <mxGraphModel>
      <root>
        <mxCell id="0" />
        <mxCell id="1" parent="0" />
        <mxCell id="2" value="Results Analysis" style="whiteSpace=wrap;strokeWidth=2;" vertex="1" parent="1">
          <mxGeometry x="271" y="590" width="419" height="357" as="geometry" />
        </mxCell>
        <mxCell id="3" value="Model Development" style="whiteSpace=wrap;strokeWidth=2;" vertex="1" parent="1">
          <mxGeometry x="710" y="413" width="342" height="534" as="geometry" />
        </mxCell>
        <mxCell id="4" value="Data Processing" style="whiteSpace=wrap;strokeWidth=2;" vertex="1" parent="1">
          <mxGeometry x="1072" y="135" width="398" height="382" as="geometry" />
        </mxCell>
        <mxCell id="5" value="Data Acquisition" style="whiteSpace=wrap;strokeWidth=2;" vertex="1" parent="1">
          <mxGeometry x="1176" y="8" width="176" height="54" as="geometry" />
        </mxCell>
        <mxCell id="6" value="Data Preprocessing" style="whiteSpace=wrap;strokeWidth=2;" vertex="1" parent="1">
          <mxGeometry x="1166" y="160" width="196" height="54" as="geometry" />
        </mxCell>
        <mxCell id="7" value="Feature Engineering" style="whiteSpace=wrap;strokeWidth=2;" vertex="1" parent="1">
          <mxGeometry x="762" y="286" width="204" height="54" as="geometry" />
        </mxCell>
        <mxCell id="8" value="Model Training" style="whiteSpace=wrap;strokeWidth=2;" vertex="1" parent="1">
          <mxGeometry x="782" y="438" width="164" height="54" as="geometry" />
        </mxCell>
        <mxCell id="9" value="Model Evaluation" style="whiteSpace=wrap;strokeWidth=2;" vertex="1" parent="1">
          <mxGeometry x="376" y="615" width="182" height="54" as="geometry" />
        </mxCell>
        <mxCell id="10" value="Hyperparameter Tuning" style="whiteSpace=wrap;strokeWidth=2;" vertex="1" parent="1">
          <mxGeometry x="8" y="741" width="228" height="54" as="geometry" />
        </mxCell>
        <mxCell id="11" value="Final Model Selection" style="whiteSpace=wrap;strokeWidth=2;" vertex="1" parent="1">
          <mxGeometry x="16" y="868" width="213" height="54" as="geometry" />
        </mxCell>
        <mxCell id="12" value="Model Deployment" style="whiteSpace=wrap;strokeWidth=2;" vertex="1" parent="1">
          <mxGeometry x="26" y="1020" width="193" height="54" as="geometry" />
        </mxCell>
        <mxCell id="13" value="Model Monitoring" style="whiteSpace=wrap;strokeWidth=2;" vertex="1" parent="1">
          <mxGeometry x="31" y="1124" width="183" height="54" as="geometry" />
        </mxCell>
        <mxCell id="14" value="Model Retraining" style="whiteSpace=wrap;strokeWidth=2;" vertex="1" parent="1">
          <mxGeometry x="32" y="1250" width="180" height="54" as="geometry" />
        </mxCell>
        <mxCell id="15" value="Data Normalization" style="whiteSpace=wrap;strokeWidth=2;" vertex="1" parent="1">
          <mxGeometry x="1237" y="286" width="198" height="54" as="geometry" />
        </mxCell>
        <mxCell id="16" value="Train/Test Split" style="whiteSpace=wrap;strokeWidth=2;" vertex="1" parent="1">
          <mxGeometry x="1251" y="438" width="170" height="54" as="geometry" />
        </mxCell>
        <mxCell id="17" value="Select Algorithm" style="whiteSpace=wrap;strokeWidth=2;" vertex="1" parent="1">
          <mxGeometry x="839" y="615" width="178" height="54" as="geometry" />
        </mxCell>
        <mxCell id="18" value="Model Fitting" style="whiteSpace=wrap;strokeWidth=2;" vertex="1" parent="1">
          <mxGeometry x="851" y="741" width="154" height="54" as="geometry" />
        </mxCell>
        <mxCell id="19" value="Cross-Validation" style="whiteSpace=wrap;strokeWidth=2;" vertex="1" parent="1">
          <mxGeometry x="841" y="868" width="175" height="54" as="geometry" />
        </mxCell>
        <mxCell id="20" value="Performance Reports" style="whiteSpace=wrap;strokeWidth=2;" vertex="1" parent="1">
          <mxGeometry x="445" y="741" width="210" height="54" as="geometry" />
        </mxCell>
        <mxCell id="21" value="Visualization" style="whiteSpace=wrap;strokeWidth=2;" vertex="1" parent="1">
          <mxGeometry x="475" y="868" width="151" height="54" as="geometry" />
        </mxCell>
        <mxCell id="22" value="Collect Data" style="curved=1;startArrow=none;endArrow=block;exitX=0.5;exitY=1;entryX=0.5;entryY=-0.01;" edge="1" parent="1" source="5" target="6">
          <mxGeometry relative="1" as="geometry">
            <Array as="points" />
          </mxGeometry>
        </mxCell>
        <mxCell id="23" value="Clean &amp; Transform" style="curved=1;startArrow=none;endArrow=block;exitX=0.34;exitY=0.99;entryX=1;entryY=0.14;" edge="1" parent="1" source="6" target="7">
          <mxGeometry relative="1" as="geometry">
            <Array as="points">
              <mxPoint x="1192" y="250" />
            </Array>
          </mxGeometry>
        </mxCell>
        <mxCell id="24" value="Select Features" style="curved=1;startArrow=none;endArrow=block;exitX=0.5;exitY=1.01;entryX=0.5;entryY=0;" edge="1" parent="1" source="7" target="8">
          <mxGeometry relative="1" as="geometry">
            <Array as="points" />
          </mxGeometry>
        </mxCell>
        <mxCell id="25" value="Train Model" style="curved=1;startArrow=none;endArrow=block;exitX=0.3;exitY=1;entryX=1;entryY=0.23;" edge="1" parent="1" source="8" target="9">
          <mxGeometry relative="1" as="geometry">
            <Array as="points">
              <mxPoint x="800" y="517" />
              <mxPoint x="800" y="590" />
            </Array>
          </mxGeometry>
        </mxCell>
        <mxCell id="26" value="Evaluate Performance" style="curved=1;startArrow=none;endArrow=block;exitX=0.31;exitY=0.99;entryX=0.99;entryY=0.01;" edge="1" parent="1" source="9" target="10">
          <mxGeometry relative="1" as="geometry">
            <Array as="points">
              <mxPoint x="384" y="705" />
            </Array>
          </mxGeometry>
        </mxCell>
        <mxCell id="27" value="Optimize Parameters" style="curved=1;startArrow=none;endArrow=block;exitX=0.5;exitY=1.01;entryX=0.5;entryY=0;" edge="1" parent="1" source="10" target="11">
          <mxGeometry relative="1" as="geometry">
            <Array as="points" />
          </mxGeometry>
        </mxCell>
        <mxCell id="28" value="Deploy Model" style="curved=1;startArrow=none;endArrow=block;exitX=0.5;exitY=1;entryX=0.5;entryY=-0.01;" edge="1" parent="1" source="11" target="12">
          <mxGeometry relative="1" as="geometry">
            <Array as="points" />
          </mxGeometry>
        </mxCell>
        <mxCell id="29" value="" style="curved=1;startArrow=none;endArrow=block;exitX=0.5;exitY=0.99;entryX=0.5;entryY=-0.01;" edge="1" parent="1" source="12" target="13">
          <mxGeometry relative="1" as="geometry">
            <Array as="points" />
          </mxGeometry>
        </mxCell>
        <mxCell id="30" value="Monitor Performance" style="curved=1;startArrow=none;endArrow=block;exitX=0.5;exitY=0.99;entryX=0.5;entryY=0.01;" edge="1" parent="1" source="13" target="14">
          <mxGeometry relative="1" as="geometry">
            <Array as="points" />
          </mxGeometry>
        </mxCell>
        <mxCell id="31" value="Normalize" style="curved=1;startArrow=none;endArrow=block;exitX=0.66;exitY=0.99;entryX=0.5;entryY=0.01;" edge="1" parent="1" source="6" target="15">
          <mxGeometry relative="1" as="geometry">
            <Array as="points">
              <mxPoint x="1336" y="250" />
            </Array>
          </mxGeometry>
        </mxCell>
        <mxCell id="32" value="Split Data" style="curved=1;startArrow=none;endArrow=block;exitX=0.5;exitY=1.01;entryX=0.5;entryY=0;" edge="1" parent="1" source="15" target="16">
          <mxGeometry relative="1" as="geometry">
            <Array as="points" />
          </mxGeometry>
        </mxCell>
        <mxCell id="33" value="Choose Algorithm" style="curved=1;startArrow=none;endArrow=block;exitX=0.7;exitY=1;entryX=0.5;entryY=-0.01;" edge="1" parent="1" source="8" target="17">
          <mxGeometry relative="1" as="geometry">
            <Array as="points">
              <mxPoint x="928" y="517" />
            </Array>
          </mxGeometry>
        </mxCell>
        <mxCell id="34" value="Fit Model" style="curved=1;startArrow=none;endArrow=block;exitX=0.5;exitY=0.99;entryX=0.5;entryY=0.01;" edge="1" parent="1" source="17" target="18">
          <mxGeometry relative="1" as="geometry">
            <Array as="points" />
          </mxGeometry>
        </mxCell>
        <mxCell id="35" value="Cross Validation" style="curved=1;startArrow=none;endArrow=block;exitX=0.5;exitY=1.01;entryX=0.5;entryY=0;" edge="1" parent="1" source="18" target="19">
          <mxGeometry relative="1" as="geometry">
            <Array as="points" />
          </mxGeometry>
        </mxCell>
        <mxCell id="36" value="Generate Reports" style="curved=1;startArrow=none;endArrow=block;exitX=0.7;exitY=0.99;entryX=0.5;entryY=0.01;" edge="1" parent="1" source="9" target="20">
          <mxGeometry relative="1" as="geometry">
            <Array as="points">
              <mxPoint x="550" y="705" />
            </Array>
          </mxGeometry>
        </mxCell>
        <mxCell id="37" value="Visualize Results" style="curved=1;startArrow=none;endArrow=block;exitX=0.5;exitY=1.01;entryX=0.5;entryY=0;" edge="1" parent="1" source="20" target="21">
          <mxGeometry relative="1" as="geometry">
            <Array as="points" />
          </mxGeometry>
        </mxCell>
      </root>
    </mxGraphModel>
  </diagram>
</mxfile>
